NikkiBlonde_ButtGallery SILVERDUST
[center][color=#CC9933][b][size=4]Screens:[/size][/b][/color][/center]
[center][img]http://bender1.zikuka.com/img/2009/10/04/67b6098b7f52271847d0ac7f7c1eeeae/image2730546.jpg[/img]

[img]http://bender1.zikuka.com/img/2009/10/04/6b14aa0e9edb452e8041b83ac38be023/image2737468.jpg[/img]

[img]http://bender1.zikuka.com/img/2009/10/04/18b4edf0a30245b4866b90f0c48c0190/image2740484.jpg[/img]

[img]http://bender1.zikuka.com/img/2009/10/04/fbbe940c7175ea97382a1d7008df0c60/image2744031.jpg[/img]

[img]http://bender1.zikuka.com/img/2009/10/04/7afd989b1dfcb6aac870c6b4e34a4bf8/image2747359.jpg[/img]

[img]http://bender1.zikuka.com/img/2009/10/04/127fd0e9d2a6e37c62571c21c77f9670/image2749812.jpg[/img]

[img]http://bender1.zikuka.com/img/2009/10/04/f07c0b6e4b5aafa7ad3cbf680a7ad48a/image2753687.jpg[/img]

[img]http://bender1.zikuka.com/img/2009/10/04/0a077d5bacf1e97e17410d0fd0995716/image2755546.jpg[/img]

[img]http://bender1.zikuka.com/img/2009/10/04/a2df04da2a38745ce5fa47c1b8c7119e/image2757578.jpg[/img]

[img]http://bender1.zikuka.com/img/2009/10/04/2f5b5704b86b57df19fb7010e9255591/image2759265.jpg[/img]

[img]http://bender1.zikuka.com/img/2009/10/04/c980ee13bc7f764b12db118d94272de1/image2761406.jpg[/img]

[img]http://bender1.zikuka.com/img/2009/10/04/198f18315bd3a47cc03d2d8aece99e94/image2763218.jpg[/img]

[img]http://bender1.zikuka.com/img/2009/10/04/7d7301e67816f07a3f619c71ff899ef3/image2764968.jpg[/img]

[img]http://bender1.zikuka.com/img/2009/10/04/060808eb580b6ec49681572a9bbf0ef4/image2766718.jpg[/img]

[img]http://bender1.zikuka.com/img/2009/10/04/d089395f1b366b5a16d0f92be74c2c35/image2768703.jpg[/img]

[img]http://bender1.zikuka.com/img/2009/10/04/d98f5080ba47a290fc2c414bbdbb685e/image2772046.jpg[/img]

[img]http://bender1.zikuka.com/img/2009/10/04/f751356967c6c98e85d06bb933077757/image2773703.jpg[/img]

[img]http://bender1.zikuka.com/img/2009/10/04/54f8d5feafc2dc0b076116c7701d7105/image2775093.jpg[/img]

[img]http://bender1.zikuka.com/img/2009/10/04/feffe732a3f85ec1c30cc16e11d6bcf6/image2779546.jpg[/img]

[img]http://bender1.zikuka.com/img/2009/10/04/52336b42b35c9684f3558ee4ce82ac2d/image2784328.jpg[/img]

[img]http://bender1.zikuka.com/img/2009/10/04/71bd1298579c5046e0fb799f289579d8/image2787843.jpg[/img]

[img]http://bender1.zikuka.com/img/2009/10/04/b22341d53ac5bfa58ea764ec55685fa5/image2789562.jpg[/img]

[img]http://bender1.zikuka.com/img/2009/10/04/4c3b861894ce6c64b5eccc31cdea879d/image2791109.jpg[/img]

[img]http://bender1.zikuka.com/img/2009/10/04/59cb38c5c274bb8d65ea4d85a232088a/image2793218.jpg[/img]

[img]http://bender1.zikuka.com/img/2009/10/04/81b7b785e35926ba0d86dd1027b1e6d0/image2796546.jpg[/img]

[img]http://bender1.zikuka.com/img/2009/10/04/9ae79b90c7224bcd6c46342f10e4a6d5/image2798640.jpg[/img]

[img]http://bender1.zikuka.com/img/2009/10/04/fb45e7e9536c34159453da53d6c718be/image2800765.jpg[/img]

[img]http://bender1.zikuka.com/img/2009/10/04/e3aeca571a4e9632fe50c8e96b985766/image2802781.jpg[/img]

[img]http://bender1.zikuka.com/img/2009/10/04/cda4d46207ee2c4ed099eb9543a00416/image2804500.jpg[/img]

[img]http://bender1.zikuka.com/img/2009/10/04/398ac68ae9f268eea7e036b0a105d229/image2806453.jpg[/img]

[img]http://bender1.zikuka.com/img/2009/10/04/7f3bfcbc4664effe798144b3af52311b/image2808093.jpg[/img]

[img]http://bender1.zikuka.com/img/2009/10/04/658dc30ccd1cfc00bb28958045390025/image2810359.jpg[/img]

[img]http://bender1.zikuka.com/img/2009/10/04/85861b7f8017621aa7c2d5efc9d9c350/image2812343.jpg[/img]

[img]http://bender1.zikuka.com/img/2009/10/04/4d3251c79f9c9e1f081cbf2897efb215/image2814015.jpg[/img]

[img]http://bender1.zikuka.com/img/2009/10/04/d4e6d88f208759702c115f391aedcc98/image2818171.jpg[/img]

[img]http://bender1.zikuka.com/img/2009/10/04/6cbf56508bd4583e0c980bdaa68d766b/image2820437.jpg[/img]

[/center][center][b][color=#999999]Click to enlarge[/color][/b][/center]
Format                           : AVI
Format/Info                      : Audio Video Interleave
File size                        : 306 MiB
Duration                         : 18mn 17s
Overall bit rate                 : 2 338 Kbps
Writing library                  : VirtualDub build 13130/release

Video
Format                           : MPEG-4 Visual
Format settings, BVOP            : No
Format settings, QPel            : No
Format settings, GMC             : No warppoints
Format settings, Matrix          : Default
Codec ID                         : XVID
Codec ID/Hint                    : XviD
Duration                         : 18mn 17s
Bit rate                         : 2 199 Kbps
Width                            : 448 pixels
Height                           : 336 pixels
Display aspect ratio             : 4/3
Frame rate                       : 29.970 fps
Resolution                       : 24 bits
Colorimetry                      : 4:2:0
Scan type                        : Progressive
Bits/(Pixel*Frame)               : 0.487
Stream size                      : 288 MiB (94%)

Audio
Format                           : MPEG Audio
Format version                   : Version 1
Format profile                   : Layer 3
Codec ID                         : 55
Codec ID/Hint                    : MP3
Duration                         : 18mn 17s
Bit rate mode                    : Constant
Bit rate                         : 128 Kbps
Channel(s)                       : 2 channels
Sampling rate                    : 44.1 KHz
Resolution                       : 16 bits
Video delay                      : 10ms
Stream size                      : 16.7 MiB (5%)
Alignment                        : Split accross interleaves
Interleave, duration             : 33 ms (1.00 video frame)
Interleave, preload duration     : 500 ms
Screens are posted for this file,how-ever some sites do not allow all picture hosts(and i do not have time upload pics to a certain host for a specific site).
I will not respond in this thread to any comments from now on(unless you are a member of a private site or are a respected member of a public site).
Thankyou to all the REAL contributors to the sites who keep the faith everyday.
Leechers,Ass-wipes,Zero posters keep on moaning into our deaf ears.
Contact? Old Skool-respected only (you know how);-)
[url]http://www.fhqhosting.com/ui/1ggggg.swf[/url]
[IMG]http://i43.servimg.com/u/f43/12/33/79/02/potpis10.gif[/IMG]
[IMG]http://www.myspaceninja.com/images/gg/glitterhkisses.gif[/IMG]